<svg width="380" height="328" viewBox="0 0 380 328" fill="none" xmlns="http://www.w3.org/2000/svg">
<g clip-path="url(#clip0_24_940)">
<path d="M284.106 319.253L276.554 319.253L272.961 290.132H284.107L284.106 319.253Z" fill="#FFB6B6"/>
<path d="M283.904 316.787L275.841 313.508L275.61 313.414L271.158 316.787C268.644 316.788 266.234 317.786 264.456 319.563C262.679 321.34 261.68 323.75 261.68 326.263V326.57H286.03V316.787H283.904Z" fill="#2F2E41"/>
<path d="M352.344 309.438L345.585 312.805L329.375 288.344L339.351 283.374L352.344 309.438Z" fill="#FFB6B6"/>
<path d="M352.97 306.371L351.241 307.229L351.063 307.318L342.396 307.987L342.136 308.004L339.655 313.005C338.541 313.56 337.547 314.329 336.731 315.268C335.914 316.207 335.291 317.298 334.896 318.478C334.501 319.658 334.343 320.904 334.43 322.146C334.517 323.387 334.848 324.599 335.404 325.712L335.541 325.984L357.333 315.13L352.97 306.371Z" fill="#2F2E41"/>
<path d="M278.984 162.732L320.627 164.189L320.918 163.767C320.918 163.767 324.47 172.053 324.47 179.155C324.47 181.516 322.827 196.96 323.662 199.882C323.766 200.246 323.051 201.136 323.286 202.828C323.438 203.927 324.277 203.082 324.47 204.604C324.608 205.696 323.131 206.299 323.286 207.563C323.455 208.944 325.486 213.416 325.669 214.951C327.616 231.302 330.208 254.988 330.208 254.988C330.208 254.988 340.62 282.866 342.822 283.319C346.519 284.079 349.015 290.799 346.967 292.196C345.991 292.862 333.383 297.338 333.383 297.338C332.69 297.464 330.523 296.377 331.904 293.807C332.158 293.334 330.642 294.538 330.39 293.972C330.122 293.369 330.648 290.973 330.341 290.304C327.586 284.301 323.355 275.982 319.346 271.71C313.423 265.399 309.671 257.36 308.64 248.767L299.444 197.795L296.292 212.089L293.685 214.665L294.4 220.672L294.277 226.502L287.764 250.767C287.764 250.767 286.788 296.084 288.356 297.523C289.206 298.302 292.811 307.902 285.988 308.768L273.592 307.812C273.592 307.812 271.922 304.293 272.757 303.041C273.592 301.789 273.542 302.13 272.523 300.081C271.504 298.032 271.922 294.559 271.922 294.559C270.298 278.24 269.658 261.837 270.004 245.441C270.625 218.51 274.391 187.573 274.391 186.942C274.422 186.298 274.303 185.655 274.044 185.064V183.364L275.643 177.341L278.984 162.732Z" fill="#2F2E41"/>
<path d="M337.586 167.822C346.669 167.822 354.033 160.461 354.033 151.381C354.033 142.3 346.669 134.939 337.586 134.939C328.503 134.939 321.14 142.3 321.14 151.381C321.14 160.461 328.503 167.822 337.586 167.822Z" fill="#1B1A64"/>
<path d="M335.343 159.938C335.059 159.938 334.779 159.872 334.525 159.745C334.271 159.618 334.05 159.433 333.879 159.206L329.393 153.225C329.248 153.033 329.144 152.815 329.084 152.582C329.024 152.349 329.011 152.107 329.045 151.869C329.079 151.632 329.16 151.403 329.282 151.196C329.404 150.99 329.566 150.809 329.758 150.665C329.951 150.521 330.169 150.416 330.402 150.356C330.635 150.297 330.877 150.284 331.115 150.318C331.353 150.352 331.581 150.432 331.788 150.554C331.995 150.677 332.175 150.839 332.32 151.031L335.255 154.943L342.794 143.638C342.927 143.438 343.099 143.266 343.298 143.132C343.498 142.998 343.722 142.905 343.958 142.858C344.194 142.811 344.436 142.81 344.672 142.857C344.908 142.903 345.132 142.996 345.332 143.129C345.532 143.263 345.704 143.434 345.838 143.634C345.971 143.833 346.065 144.058 346.112 144.293C346.159 144.529 346.159 144.771 346.112 145.007C346.065 145.243 345.972 145.467 345.839 145.667L336.865 159.123C336.703 159.367 336.484 159.568 336.228 159.709C335.972 159.851 335.686 159.929 335.394 159.937C335.377 159.937 335.36 159.938 335.343 159.938Z" fill="white"/>
<path d="M345.719 168.762C345.879 168.09 345.89 167.391 345.751 166.714C345.611 166.037 345.325 165.398 344.913 164.844C344.5 164.289 343.971 163.832 343.362 163.504C342.753 163.176 342.08 162.986 341.39 162.946L332.963 134.243L327.262 140.857L336.332 167.732C336.342 168.895 336.779 170.015 337.56 170.878C338.34 171.741 339.41 172.288 340.568 172.415C341.725 172.542 342.888 172.24 343.837 171.567C344.787 170.894 345.456 169.896 345.719 168.762V168.762Z" fill="#FFB8B8"/>
<path d="M339.773 154.759L338.678 150.746L339.933 148.35L339.839 148.071L339.46 146.994L337.494 145.42L338.199 143.414L335.712 136.353L335.102 135.128L320.829 106.477L317.407 99.6056L316.614 98.3627L314.145 94.4921L310.77 89.207C310.234 88.3622 309.535 87.6326 308.713 87.0606C307.892 86.4886 306.965 86.0855 305.987 85.8749C305.67 85.8054 305.35 85.756 305.028 85.727L304.797 85.7092C304.221 85.6774 303.643 85.7112 303.074 85.8098H303.062C302.06 85.9836 301.105 86.3624 300.256 86.9225C299.588 87.3548 298.992 87.8902 298.492 88.5086C297.339 89.9378 296.74 91.7342 296.804 93.5689L296.911 96.457L297.018 99.0848L302.026 108.14L302.352 108.732L302.358 108.75L317.768 136.625L322.415 145.029L323.12 146.308L326.246 148.379L325.411 150.462L325.654 153.706L328.312 155.712L332.166 159.624L332.32 159.944L333.504 159.346L333.616 159.287L333.883 159.21L337.547 158.103L339.773 157.434L339.845 157.411L340.454 157.257L339.773 154.759Z" fill="#C3CAD4"/>
<path d="M403.126 285.059C402.01 283.64 400.494 282.588 398.774 282.038C397.054 281.488 395.209 281.466 393.476 281.975L393.097 282.088L389.699 295.351C389.19 293.374 388.1 288.912 387.414 284.544L387.354 284.183L387.017 284.331C383.464 285.9 380.125 287.913 377.077 290.32C371.678 294.65 367.286 300.103 364.208 306.301C361.129 312.498 359.438 319.292 359.251 326.209L359.245 326.464L359.239 326.623L359.689 326.464L369.345 323.013C373.62 323.39 377.925 322.807 381.947 321.308C385.968 319.809 389.603 317.432 392.588 314.349C396.489 310.235 399.165 304.944 401.752 299.825C402.51 298.334 403.286 296.795 404.079 295.315C404.964 293.706 405.346 291.869 405.176 290.041C405.007 288.212 404.292 286.477 403.126 285.059V285.059Z" fill="#F2F2F2"/>
<path d="M155.338 64.8893H154.154V19.2922H239.794V20.4759H155.338V64.8893Z" fill="#3F3D56"/>
<path d="M252.927 32.8826C262.01 32.8826 269.373 25.5216 269.373 16.4413C269.373 7.36103 262.01 0 252.927 0C243.844 0 236.481 7.36103 236.481 16.4413C236.481 25.5216 243.844 32.8826 252.927 32.8826Z" fill="#1B1A64"/>
<path d="M250.683 24.9982C250.399 24.9982 250.119 24.9321 249.865 24.8051C249.611 24.6781 249.39 24.4937 249.22 24.2666L244.733 18.2859C244.589 18.0937 244.484 17.8751 244.425 17.6424C244.365 17.4098 244.352 17.1677 244.386 16.9299C244.42 16.6922 244.5 16.4634 244.623 16.2568C244.745 16.0501 244.907 15.8696 245.099 15.7255C245.291 15.5814 245.51 15.4766 245.743 15.417C245.975 15.3574 246.218 15.3442 246.456 15.3782C246.693 15.4121 246.922 15.4926 247.129 15.615C247.336 15.7374 247.516 15.8992 247.66 16.0914L250.596 20.0038L258.135 8.69848C258.268 8.4984 258.44 8.32653 258.639 8.19267C258.839 8.05882 259.063 7.96561 259.299 7.91837C259.534 7.87114 259.777 7.87079 260.013 7.91738C260.249 7.96396 260.473 8.05655 260.673 8.18985C260.873 8.32316 261.045 8.49456 261.178 8.69427C261.312 8.89397 261.405 9.11806 261.452 9.35373C261.499 9.5894 261.499 9.83202 261.453 10.0677C261.406 10.3035 261.313 10.5276 261.179 10.7275L252.206 24.1838C252.043 24.4272 251.825 24.6281 251.569 24.7697C251.313 24.9113 251.027 24.9894 250.734 24.9976C250.717 24.9979 250.7 24.9982 250.683 24.9982Z" fill="white"/>
<path d="M97.3197 175.59H96.1356V221.187H181.776V220.003H97.3197V175.59Z" fill="#3F3D56"/>
<path d="M194.909 237.659C203.992 237.659 211.355 230.298 211.355 221.218C211.355 212.138 203.992 204.777 194.909 204.777C185.826 204.777 178.462 212.138 178.462 221.218C178.462 230.298 185.826 237.659 194.909 237.659Z" fill="#1B1A64"/>
<path d="M192.665 229.775C192.381 229.775 192.101 229.709 191.847 229.582C191.593 229.455 191.372 229.27 191.202 229.043L186.715 223.062C186.571 222.87 186.466 222.652 186.406 222.419C186.347 222.186 186.334 221.944 186.368 221.706C186.401 221.469 186.482 221.24 186.604 221.033C186.727 220.827 186.889 220.646 187.081 220.502C187.273 220.358 187.492 220.253 187.725 220.194C187.957 220.134 188.199 220.121 188.437 220.155C188.675 220.189 188.904 220.269 189.111 220.392C189.317 220.514 189.498 220.676 189.642 220.868L192.577 224.78L200.117 213.475C200.25 213.275 200.421 213.103 200.621 212.969C200.821 212.835 201.045 212.742 201.28 212.695C201.516 212.648 201.759 212.647 201.995 212.694C202.23 212.741 202.455 212.833 202.655 212.966C202.855 213.1 203.026 213.271 203.16 213.471C203.294 213.671 203.387 213.895 203.434 214.13C203.481 214.366 203.481 214.609 203.434 214.844C203.388 215.08 203.295 215.304 203.161 215.504L194.188 228.96C194.025 229.204 193.807 229.405 193.551 229.546C193.295 229.688 193.009 229.766 192.716 229.774C192.699 229.774 192.682 229.775 192.665 229.775Z" fill="white"/>
<path d="M325.062 177.267C325.079 178.513 324.879 179.753 324.47 180.93L324.381 180.913C313.866 182.731 304.487 183.028 300.147 176.576C294.487 169.37 286.7 169.451 278.014 172.615L276.984 171.502L275.231 169.614L276.841 167.792L275.231 164.276L276.575 159.938L278.292 159.624L277.83 155.89L277.108 153.706L279.227 151.38L281.027 145.574L279.731 133.423C277.956 116.769 281.394 99.9736 289.57 85.3542L294.49 80.939L296.532 79.1043L299.273 73.9908L302.168 74.3282L310.007 75.2337L310.273 75.8729L312.197 80.5129L322.333 91.3969L321.877 95.9895L321.675 98.0136L321.527 99.4695L320.829 106.477L317.981 135.104L317.768 136.625L315.477 153.084C319.201 156.683 322.492 163.613 324.073 169.946C324.251 170.65 323.747 171.366 323.878 172.053C324.061 173.023 324.86 173.947 324.949 174.852C325.032 175.654 325.069 176.46 325.062 177.267V177.267Z" fill="#C3CAD4"/>
<path d="M304.987 72.158C312.506 72.158 318.601 66.0646 318.601 58.5479C318.601 51.0313 312.506 44.9379 304.987 44.9379C297.468 44.9379 291.373 51.0313 291.373 58.5479C291.373 66.0646 297.468 72.158 304.987 72.158Z" fill="#FFB6B6"/>
<path d="M321.399 54.8349C320.593 52.3237 318.383 50.1989 315.759 49.9213C315.958 48.2534 315.695 46.5629 315 45.0339C314.304 43.505 313.202 42.1961 311.814 41.2499C310.426 40.3037 308.804 39.7564 307.126 39.6675C305.449 39.5787 303.778 39.9517 302.298 40.746C301.983 40.3682 301.577 40.0779 301.117 39.9033C300.658 39.7287 300.161 39.6757 299.674 39.7494C298.703 39.9095 297.786 40.3108 297.01 40.9165C295.081 42.3268 293.571 44.2335 292.64 46.4338C291.709 48.634 291.393 51.0453 291.724 53.4112C291.718 52.2111 292.25 54.5329 293.775 54.7381C295.046 54.9936 296.255 55.4924 297.337 56.207C298.418 56.9215 299.624 57.4268 300.892 57.6967C302.172 57.8838 302.501 63.0114 301.588 66.3139C301.414 66.9398 301.326 67.7796 301.903 68.0778C302.614 68.4451 303.332 67.5216 304.127 67.4316C304.484 67.426 304.829 67.559 305.089 67.8027C305.35 68.0463 305.505 68.3815 305.524 68.7377C305.524 69.095 305.44 69.4473 305.277 69.7653C305.114 70.0833 304.877 70.3578 304.587 70.5659C304.002 70.9763 303.355 71.2895 302.671 71.4937L302.901 71.8194C303.101 72.1918 303.425 72.4828 303.817 72.6424C304.209 72.8021 304.644 72.8206 305.048 72.6946C305.959 73.7924 315.341 70.7442 315.798 68.7405C317.763 66.9708 319.395 64.8635 320.616 62.5185C321.837 60.1475 322.116 57.4032 321.399 54.8349V54.8349Z" fill="#2F2E41"/>
<path d="M332.409 96.2854C332.219 97.8716 330.733 99.0552 329.171 99.3867C328.376 99.5395 327.561 99.5535 326.761 99.4281C325.98 99.3121 325.208 99.1401 324.452 98.9132C323.517 98.6469 322.591 98.347 321.675 98.0136C319.06 97.0799 316.538 95.9009 314.145 94.4922C312.335 93.4359 310.602 92.2532 308.959 90.953C308.106 90.2783 307.279 89.574 306.478 88.8401L307.479 89.3136C306.585 88.1121 305.691 86.9107 304.797 85.7092C303.933 84.5492 303.07 83.3893 302.21 82.2292C302.156 82.1582 302.115 82.1109 302.097 82.0872V82.0813C301.701 81.5545 301.31 81.0278 300.919 80.5011C299.741 78.9209 298.581 76.6008 299.936 75.1745C300.226 74.8968 300.576 74.6914 300.96 74.5751C301.344 74.4589 301.75 74.4351 302.145 74.5057C302.57 74.5609 302.981 74.6933 303.358 74.8963C304.394 75.5668 305.272 76.4531 305.934 77.4945C306.857 76.1511 308.651 75.6539 310.273 75.8729C310.362 75.8788 310.445 75.8906 310.528 75.9025C312.215 76.1925 312.943 75.281 314.405 76.1747C315.086 76.589 315.501 78.7196 316.181 79.1339C316.566 79.3707 317.993 79.7258 318.384 79.9684C319.153 80.4419 318.958 82.2115 319.734 82.685C320.308 83.0341 321.847 82.0931 322.421 82.4423C323.025 82.8152 323.866 85.2772 324.47 85.6442C325.672 86.384 326.637 85.0346 327.838 85.7684C329.384 86.7213 331.029 87.7807 331.681 89.4734C332.255 90.9648 331.515 93.0066 330.088 93.4328C330.77 93.5141 331.393 93.8572 331.826 94.3896C332.259 94.9219 332.468 95.6018 332.409 96.2854V96.2854Z" fill="#C3CAD4"/>
<path opacity="0.2" d="M321.675 98.0136L321.527 99.4695C319.85 99.308 318.199 98.9362 316.614 98.3628C314.527 97.6626 312.717 96.3175 311.445 94.5218C310.64 93.3144 309.799 92.113 308.959 90.953C307.562 89.0117 306.176 87.2007 305.028 85.727C303.625 83.9456 302.571 82.6554 302.21 82.2293C302.156 82.1582 302.115 82.1109 302.097 82.0872L302.079 82.0695L302.097 82.0813C309.132 90.9817 315.776 96.1141 321.877 95.9895C321.877 95.9895 322.593 98.345 321.675 98.0136Z" fill="black"/>
<path d="M257.302 26.7394C257.128 27.4085 257.104 28.1074 257.23 28.787C257.356 29.4665 257.63 30.1102 258.032 30.6725C258.434 31.2349 258.954 31.7024 259.556 32.042C260.158 32.3816 260.828 32.585 261.517 32.6381L269.387 61.4988L275.215 54.9966L266.667 27.9513C266.679 26.7877 266.264 25.66 265.5 24.7819C264.736 23.9038 263.677 23.3363 262.523 23.1869C261.368 23.0375 260.199 23.3167 259.237 23.9714C258.275 24.6262 257.586 25.611 257.302 26.7394Z" fill="#FFB8B8"/>
<path d="M303.506 100.541L303.453 97.913L298.492 88.5086L298.308 88.1654L298.296 88.1476L294.49 80.939L276.121 46.1234L274.148 45.399L274.246 42.571L274.148 39.4806L271.778 37.8922L270.767 35.9769L269.335 36.3853H269.329L269.287 36.3971L263.024 38.1549H263.018L261.715 38.8888L260.531 42.4398L260.272 44.121L260.531 47.1745L263.491 47.7664L262.511 50.8975L265.486 59.905C269.21 75.6479 274.296 89.2366 283.075 96.9956L283.798 98.1793L289.511 107.524C290.29 108.803 291.431 109.822 292.789 110.453C294.147 111.084 295.662 111.298 297.142 111.07H297.148C298.153 110.914 299.115 110.555 299.978 110.016C300.773 109.526 301.468 108.889 302.026 108.14C303.046 106.786 303.586 105.13 303.559 103.435L303.506 100.541Z" fill="#C3CAD4"/>
<path d="M407.295 327.818L246.413 328C246.226 328 246.047 327.926 245.914 327.794C245.782 327.661 245.708 327.482 245.708 327.295C245.708 327.108 245.782 326.929 245.914 326.797C246.047 326.665 246.226 326.591 246.413 326.591L407.295 326.409C407.482 326.409 407.661 326.483 407.794 326.615C407.926 326.747 408 326.927 408 327.113C408 327.3 407.926 327.48 407.794 327.612C407.661 327.744 407.482 327.818 407.295 327.818V327.818Z" fill="#CACACA"/>
<path d="M49.51 90.9707C49.5001 82.0742 52.9001 73.512 59.0109 67.0445L38.0395 38.1892C37.1762 37.0004 36.0669 36.0115 34.7869 35.2899C33.5069 34.5683 32.0864 34.1309 30.6222 34.0076C29.1579 33.8842 27.6842 34.0777 26.3015 34.5749C24.9188 35.0722 23.6595 35.8615 22.6093 36.889C15.4254 43.8899 9.7221 52.2626 5.83816 61.5099C1.95422 70.7572 -0.0311473 80.6905 -5.45296e-06 90.7199C5.30412e-05 94.5072 0.282497 98.2893 0.844966 102.035C1.06563 103.516 1.60674 104.93 2.43057 106.181C3.25441 107.431 4.34114 108.486 5.61497 109.274C6.87443 110.053 8.28877 110.548 9.75936 110.725C11.23 110.901 12.7214 110.755 14.1296 110.296L50.341 98.534C49.79 96.0506 49.5113 93.5145 49.51 90.9707V90.9707Z" fill="#F2F2F2"/>
<path d="M51.4357 102.404L13.7891 114.633C12.3958 115.083 11.1156 115.827 10.0353 116.815C8.95497 117.803 8.09971 119.012 7.5275 120.36C6.95528 121.707 6.67947 123.162 6.71877 124.625C6.75806 126.088 7.11153 127.526 7.75523 128.841C13.1164 139.714 21.0195 149.136 30.7952 156.309C40.571 163.481 51.9316 168.194 63.9153 170.047C65.3748 170.271 66.8656 170.177 68.2853 169.771C69.705 169.365 71.0201 168.657 72.1404 167.695C73.2592 166.736 74.1571 165.547 74.7725 164.208C75.3879 162.869 75.7062 161.413 75.7055 159.94V124.789C70.1298 123.343 64.9974 120.543 60.7637 116.638C56.53 112.733 53.3259 107.844 51.4357 102.404Z" fill="#C3CAD4"/>
<path d="M164.649 124.367C164.014 122.858 163.06 121.504 161.854 120.396C160.648 119.289 159.218 118.454 157.66 117.948L116.602 104.611C114.205 110.246 110.369 115.153 105.479 118.839C100.588 122.526 94.8143 124.863 88.7358 125.617V168.383C88.7367 170.024 89.0925 171.646 89.7789 173.138C90.4652 174.629 91.466 175.954 92.7125 177.023C93.959 178.091 95.4219 178.878 97.0009 179.329C98.5799 179.779 100.238 179.884 101.861 179.634C115.201 177.571 127.847 172.325 138.729 164.341C149.612 156.356 158.409 145.868 164.378 133.764C165.095 132.309 165.491 130.717 165.538 129.095C165.584 127.474 165.281 125.861 164.649 124.367Z" fill="#3F3D56"/>
<path d="M154.448 26.2738C153.279 25.1298 151.878 24.2511 150.338 23.6976C148.799 23.144 147.159 22.9286 145.529 23.0659C143.898 23.2032 142.317 23.6901 140.892 24.4935C139.467 25.2968 138.233 26.3976 137.272 27.721L109.201 66.3452C112.43 69.5813 114.99 73.4217 116.735 77.647C118.479 81.8722 119.374 86.3996 119.369 90.9707C119.369 91.8212 119.328 92.6613 119.268 93.4964L163.888 107.99C165.466 108.499 167.136 108.658 168.781 108.456C170.427 108.255 172.008 107.696 173.416 106.821C174.824 105.945 176.024 104.774 176.932 103.387C177.841 102.001 178.436 100.433 178.676 98.7935C179.302 94.624 179.617 90.4135 179.617 86.1973C179.651 75.0328 177.441 63.9752 173.118 53.6813C168.794 43.3873 162.445 34.067 154.448 26.2738V26.2738Z" fill="#1B1A64"/>
<path d="M84.4394 56.0521C90.4489 56.0453 96.3575 57.5964 101.588 60.5539L118.722 36.9795C119.595 35.7789 120.197 34.4031 120.487 32.9472C120.777 31.4912 120.747 29.9897 120.4 28.5463C120.064 27.1305 119.425 25.8044 118.526 24.6595C117.628 23.5147 116.491 22.5784 115.196 21.9153C104.618 16.5373 92.9214 13.7258 81.0541 13.7085C69.1868 13.6912 57.4823 16.4687 46.8887 21.8159C45.5528 22.4898 44.3793 23.4459 43.4497 24.6182C42.5201 25.7904 41.8566 27.1506 41.505 28.6047C41.1583 30.038 41.1275 31.5295 41.4147 32.9759C41.7019 34.4223 42.3003 35.789 43.1683 36.9812L62.6045 63.7247C68.7929 58.7496 76.4982 56.0421 84.4394 56.0521V56.0521Z" fill="#C3CAD4"/>
</g>
<defs>
<clipPath id="clip0_24_940">
<rect width="380" height="328" fill="white"/>
</clipPath>
</defs>
</svg>
